<svg xmlns="http://www.w3.org/2000/svg" xmlns:xlink="http://www.w3.org/1999/xlink" width="43" height="45" viewBox="0 0 43 45">
  <defs>
    <clipPath id="clip-path">
      <rect id="Rectangle_79" data-name="Rectangle 79" width="43" height="45" transform="translate(0 0.172)" fill="none" stroke="#707070" stroke-width="1.5"/>
    </clipPath>
  </defs>
  <g id="Group_520" data-name="Group 520" transform="translate(0 -0.172)">
    <g id="Group_519" data-name="Group 519" transform="translate(0 0)" clip-path="url(#clip-path)">
      <path id="Path_479" data-name="Path 479" d="M42.8,108h7.618a1.116,1.116,0,0,1,1.116,1.116v36.2a1.116,1.116,0,0,1-1.116,1.116h-40.3A1.116,1.116,0,0,1,9,145.314v-36.2A1.116,1.116,0,0,1,10.116,108h7.528" transform="translate(-8.639 -102.118)" fill="none" stroke="#707070" stroke-linecap="round" stroke-linejoin="round" stroke-width="1.5"/>
      <line id="Line_3" data-name="Line 3" x2="17.304" transform="translate(12.937 5.882)" fill="none" stroke="#707070" stroke-linecap="round" stroke-linejoin="round" stroke-width="1.5"/>
      <path id="Path_480" data-name="Path 480" d="M180.873,9h0A1.873,1.873,0,0,0,179,10.873v8.184h3.745V10.873A1.873,1.873,0,0,0,180.873,9Z" transform="translate(-169.917 -8.197)" fill="none" stroke="#707070" stroke-linecap="round" stroke-linejoin="round" stroke-width="1.5"/>
      <path id="Path_481" data-name="Path 481" d="M594.873,9h0A1.873,1.873,0,0,0,593,10.873v8.184h3.745V10.873A1.873,1.873,0,0,0,594.873,9Z" transform="translate(-562.675 -8.197)" fill="none" stroke="#707070" stroke-linecap="round" stroke-linejoin="round" stroke-width="1.5"/>
      <line id="Line_4" data-name="Line 4" x2="42.534" transform="translate(0.361 15.404)" fill="none" stroke="#707070" stroke-linecap="round" stroke-linejoin="round" stroke-width="1.5"/>
      <path id="Path_482" data-name="Path 482" d="M262,424.478l5.849,7.183,10.621-14.469" transform="translate(-248.658 -395.446)" fill="none" stroke="#707070" stroke-linecap="round" stroke-linejoin="round" stroke-width="1.5"/>
    </g>
  </g>
</svg>
