<svg role="img" viewBox="0 0 1200 1200" version="1.1" xmlns="http://www.w3.org/2000/svg"><path d="m1138.7 595.57c-13.766-276.56-235.03-497.89-511.66-511.61v-1.3945h-54v1.3906c-276.62 13.719-497.94 235.05-511.66 511.61h-1.3438v54h1.3438c13.715 276.59 235.03 497.92 511.66 511.63v1.3672h54v-1.3672c276.62-13.715 497.89-235.04 511.66-511.63h1.3438v-54zm-242.41 0c-2.0039-73.668-12.059-143.33-28.727-206.34 42.059-24.047 80.867-53.293 114.86-87.406 67.523 80.387 109.74 182.27 115.75 293.75zm-76.953-226.96c-58.645 28.812-123.57 46.402-192.29 50.102v-292.64c80.746 17.355 151.34 111.38 192.29 242.54m-246.29-242.54v292.63c-68.723-3.6953-133.69-21.277-192.27-50.102 40.863-131.16 111.52-225.18 192.27-242.53m0 333.13v136.37h-228.76c1.8945-66.336 10.777-129.62 25.285-187.21 62.246 29.473 130.91 47.258 203.47 50.844m0 190.37v163.34c-70.164 3.5039-136.64 20.352-197.15 48.254-18.348-63.805-29.426-135.78-31.621-211.6zm0 203.84v265.68c-75.887-16.32-143.04-100.07-184.78-218.95 56.605-26.852 118.92-43.172 184.78-46.727m54 265.68v-265.68c65.832 3.5508 128.17 19.871 184.78 46.727-41.762 118.88-108.95 202.62-184.78 218.95m221.04-199.92c33.301 19.273 64.465 41.785 92.387 67.895-57.516 53.711-127.46 93.973-205.25 115.93 45.805-42.695 84.695-106.15 112.86-183.83m-221.04-106.26v-163.34h228.76c-2.2188 75.805-13.285 147.78-31.645 211.6-60.527-27.898-126.97-44.746-197.11-48.254m0-217.34v-136.37c72.539-3.5898 141.2-21.383 203.45-50.832 14.531 57.59 23.387 120.86 25.309 187.21l-228.76 0.003907zm341.4-309.07c-4.5117-5.0156-8.7969-10.129-13.523-14.93-29.508 29.82-63.047 55.523-99.227 77.207-28.523-87.938-70.285-159.84-120.47-206.62 90.973 25.648 171.2 76.359 233.22 144.34m-503.59-144.34c-50.207 46.766-91.945 118.68-120.49 206.62-36.18-21.684-69.695-47.375-99.227-77.207-4.6211 4.6914-8.7734 9.707-13.211 14.555 62-67.766 142.12-118.37 232.93-143.96m-247.21 159.65c34.02 34.117 72.793 63.359 114.85 87.406-16.668 63.012-26.711 132.68-28.691 206.34h-201.91c6.0117-111.46 48.254-213.35 115.75-293.75m-115.75 347.76h201.91c2.2695 83.004 14.426 161.28 35.074 230.26-39.109 21.805-75.445 47.855-107.81 78.238 9.1211 10.066 18.613 19.727 28.523 29.004 27.949-26.113 59.148-48.625 92.387-67.895 28.164 77.688 67.055 141.14 112.87 183.83-201.48-56.844-351.3-236.84-362.96-453.43m838.59 337.5c9.9102-9.2773 19.43-18.938 28.547-29.004-32.398-30.371-68.734-56.426-107.81-78.238 20.605-68.977 32.797-147.25 35.074-230.26h201.89c-7.1719 133-66.262 252.07-157.7 337.5"/></svg>
